# xmcd
#
# Track frame offsets: 
#        180
#        13974
#        24779
#        40543
#        55612
#        67816
#        83316
#        102457
#        115054
#        127852
#        144834
#        155864
#
# Disc length: 2248 seconds
#
# Revision: 12
# Processed by: cddbd v1.5.2PL0 Copyright (c) Steve Scherf et al.
# Submitted via: ExactAudioCopyFreeDBPlugin 1.0
#
DISCID=8408c60c
DTITLE=Various Artist - Blues Collection [Madacy Entertainment] [disc 3]
DYEAR=1999
DGENRE=Blues
TTITLE0=John Lee Hooker - Trouble Blues
TTITLE1=Ray Charles - Hey Now
TTITLE2=Billie Holiday - Easy to Remember
TTITLE3=Ray Charles - I'm Wonderin' and Wonderin'
TTITLE4=John Lee Hooker - Whiskey and Wimmen
TTITLE5=Johnny Otis - Bad Luck Shadow
TTITLE6=Richard Berry - Round About Midnight
TTITLE7=Amos Milbourne - Trouble In Mind
TTITLE8=Eddie ''Clean Head'' Vinson - Alimony Blues
TTITLE9=John Lee Hooker - Process
TTITLE10=Ray Charles - I Wonder Who's Kissing Her Now
TTITLE11=Elmore James - The Sky Is Crying
EXTD=
EXTT0=
EXTT1=
EXTT2=
EXTT3=
EXTT4=
EXTT5=
EXTT6=
EXTT7=
EXTT8=
EXTT9=
EXTT10=
EXTT11=
PLAYORDER=
